<mxfile host="app.diagrams.net" modified="2021-11-15T01:39:48.107Z" agent="5.0 (Macintosh)" etag="AIPHDHcvK_q708XwQCc_" version="15.6.0" type="github" pages="3">
  <diagram id="AdbaFVb3-QbKmIGJH7xc" name="Page-1">
    <mxGraphModel dx="1138" dy="720" grid="1" gridSize="10" guides="1" tooltips="1" connect="1" arrows="1" fold="1" page="1" pageScale="1" pageWidth="827" pageHeight="1169" math="0" shadow="0" extFonts="Noto Sans JP^https://fonts.googleapis.com/css?family=Noto+Sans+JP">
      <root>
        <mxCell id="0" />
        <mxCell id="1" style="locked=1;" parent="0" />
        <mxCell id="F7Ml6rWDMI4VTQbKt3wj-3" value="" style="endArrow=none;html=1;strokeWidth=1;strokeColor=#808080;" parent="1" edge="1">
          <mxGeometry width="50" height="50" relative="1" as="geometry">
            <mxPoint x="140" y="340" as="sourcePoint" />
            <mxPoint x="750" y="340" as="targetPoint" />
          </mxGeometry>
        </mxCell>
        <mxCell id="F7Ml6rWDMI4VTQbKt3wj-8" value="" style="endArrow=classic;html=1;strokeWidth=1;strokeColor=#808080;sketch=1;endFill=1;startSize=6;endSize=14;" parent="1" edge="1">
          <mxGeometry width="50" height="50" relative="1" as="geometry">
            <mxPoint x="20" y="340" as="sourcePoint" />
            <mxPoint x="750" y="340" as="targetPoint" />
          </mxGeometry>
        </mxCell>
        <mxCell id="F7Ml6rWDMI4VTQbKt3wj-11" value="Untitled Layer" style="" parent="0" />
        <mxCell id="F7Ml6rWDMI4VTQbKt3wj-15" value="" style="ellipse;whiteSpace=wrap;html=1;aspect=fixed;strokeColor=#CCCCCC;fontColor=#5C5C5C;sketch=0;fillColor=#67AB9F;strokeWidth=4;fontFamily=Noto Sans JP;" parent="F7Ml6rWDMI4VTQbKt3wj-11" vertex="1">
          <mxGeometry x="70" y="330" width="20" height="20" as="geometry" />
        </mxCell>
        <mxCell id="F7Ml6rWDMI4VTQbKt3wj-21" value="2021-07&lt;br&gt;システム選定" style="text;html=1;strokeColor=none;fillColor=none;align=center;verticalAlign=middle;whiteSpace=wrap;rounded=0;sketch=0;fontFamily=Noto Sans JP;fontSource=https%3A%2F%2Ffonts.googleapis.com%2Fcss%3Ffamily%3DMontserrat;fontStyle=1;fontColor=#666666;" parent="F7Ml6rWDMI4VTQbKt3wj-11" vertex="1">
          <mxGeometry x="30" y="370" width="100" height="20" as="geometry" />
        </mxCell>
        <mxCell id="F7Ml6rWDMI4VTQbKt3wj-22" value="" style="ellipse;whiteSpace=wrap;html=1;aspect=fixed;strokeColor=#CCCCCC;fontColor=#5C5C5C;sketch=0;fillColor=#67AB9F;strokeWidth=4;fontFamily=Noto Sans JP;" parent="F7Ml6rWDMI4VTQbKt3wj-11" vertex="1">
          <mxGeometry x="350" y="330" width="20" height="20" as="geometry" />
        </mxCell>
        <mxCell id="F7Ml6rWDMI4VTQbKt3wj-23" value="運用法策定" style="shape=delay;whiteSpace=wrap;html=1;sketch=0;strokeWidth=2;gradientColor=none;fontFamily=Noto Sans JP;fontSource=https%3A%2F%2Ffonts.googleapis.com%2Fcss%3Ffamily%3DNoto%2Bsans%2BJP;strokeColor=#CCCCCC;fillColor=#E6E6E6;opacity=50;" parent="F7Ml6rWDMI4VTQbKt3wj-11" vertex="1">
          <mxGeometry x="70" y="80" width="290" height="30" as="geometry" />
        </mxCell>
        <mxCell id="F7Ml6rWDMI4VTQbKt3wj-24" value="2021-08" style="text;html=1;strokeColor=none;fillColor=none;align=center;verticalAlign=middle;whiteSpace=wrap;rounded=0;sketch=0;fontFamily=Noto Sans JP;fontSource=https%3A%2F%2Ffonts.googleapis.com%2Fcss%3Ffamily%3DMontserrat;fontStyle=1;fontColor=#666666;" parent="F7Ml6rWDMI4VTQbKt3wj-11" vertex="1">
          <mxGeometry x="160" y="370" width="100" height="20" as="geometry" />
        </mxCell>
        <mxCell id="F7Ml6rWDMI4VTQbKt3wj-25" value="受入テスト" style="shape=delay;whiteSpace=wrap;html=1;sketch=0;strokeWidth=2;gradientColor=none;fontFamily=Noto Sans JP;fontSource=https%3A%2F%2Ffonts.googleapis.com%2Fcss%3Ffamily%3DNoto%2Bsans%2BJP;strokeColor=#CCCCCC;fillColor=#E6E6E6;opacity=50;" parent="F7Ml6rWDMI4VTQbKt3wj-11" vertex="1">
          <mxGeometry x="360" y="200" width="140" height="30" as="geometry" />
        </mxCell>
        <mxCell id="F7Ml6rWDMI4VTQbKt3wj-26" value="VDR 監査" style="shape=delay;whiteSpace=wrap;html=1;sketch=0;strokeWidth=2;gradientColor=none;fontFamily=Noto Sans JP;fontSource=https%3A%2F%2Ffonts.googleapis.com%2Fcss%3Ffamily%3DNoto%2Bsans%2BJP;strokeColor=#CCCCCC;fillColor=#E6E6E6;opacity=50;" parent="F7Ml6rWDMI4VTQbKt3wj-11" vertex="1">
          <mxGeometry x="220" y="120" width="140" height="30" as="geometry" />
        </mxCell>
        <mxCell id="F7Ml6rWDMI4VTQbKt3wj-28" value="2021-09&lt;br&gt;システム受入" style="text;html=1;strokeColor=none;fillColor=none;align=center;verticalAlign=middle;whiteSpace=wrap;rounded=0;sketch=0;fontFamily=Noto Sans JP;fontSource=https%3A%2F%2Ffonts.googleapis.com%2Fcss%3Ffamily%3DMontserrat;fontStyle=1;fontColor=#666666;" parent="F7Ml6rWDMI4VTQbKt3wj-11" vertex="1">
          <mxGeometry x="310" y="370" width="100" height="20" as="geometry" />
        </mxCell>
        <mxCell id="F7Ml6rWDMI4VTQbKt3wj-29" value="" style="ellipse;whiteSpace=wrap;html=1;aspect=fixed;strokeColor=#CCCCCC;fontColor=#5C5C5C;sketch=0;fillColor=#67AB9F;strokeWidth=4;fontFamily=Noto Sans JP;" parent="F7Ml6rWDMI4VTQbKt3wj-11" vertex="1">
          <mxGeometry x="490" y="330" width="20" height="20" as="geometry" />
        </mxCell>
        <mxCell id="F7Ml6rWDMI4VTQbKt3wj-30" value="2021-10&lt;br&gt;CSV 完了" style="text;html=1;strokeColor=none;fillColor=none;align=center;verticalAlign=middle;whiteSpace=wrap;rounded=0;sketch=0;fontFamily=Noto Sans JP;fontSource=https%3A%2F%2Ffonts.googleapis.com%2Fcss%3Ffamily%3DMontserrat;fontStyle=1;fontColor=#666666;" parent="F7Ml6rWDMI4VTQbKt3wj-11" vertex="1">
          <mxGeometry x="450" y="370" width="100" height="20" as="geometry" />
        </mxCell>
        <mxCell id="F7Ml6rWDMI4VTQbKt3wj-31" value="" style="ellipse;whiteSpace=wrap;html=1;aspect=fixed;strokeColor=#CCCCCC;fontColor=#5C5C5C;sketch=0;fillColor=#67AB9F;strokeWidth=4;fontFamily=Noto Sans JP;" parent="F7Ml6rWDMI4VTQbKt3wj-11" vertex="1">
          <mxGeometry x="630" y="330" width="20" height="20" as="geometry" />
        </mxCell>
        <mxCell id="F7Ml6rWDMI4VTQbKt3wj-32" value="2021-11&lt;br&gt;本番運用開始" style="text;html=1;strokeColor=none;fillColor=none;align=center;verticalAlign=middle;whiteSpace=wrap;rounded=0;sketch=0;fontFamily=Noto Sans JP;fontSource=https%3A%2F%2Ffonts.googleapis.com%2Fcss%3Ffamily%3DMontserrat;fontStyle=1;fontColor=#666666;" parent="F7Ml6rWDMI4VTQbKt3wj-11" vertex="1">
          <mxGeometry x="590" y="370" width="100" height="20" as="geometry" />
        </mxCell>
        <mxCell id="F7Ml6rWDMI4VTQbKt3wj-33" value="データ移行" style="shape=delay;whiteSpace=wrap;html=1;sketch=0;strokeWidth=2;gradientColor=none;fontFamily=Noto Sans JP;fontSource=https%3A%2F%2Ffonts.googleapis.com%2Fcss%3Ffamily%3DNoto%2Bsans%2BJP;strokeColor=#CCCCCC;fillColor=#E6E6E6;opacity=50;" parent="F7Ml6rWDMI4VTQbKt3wj-11" vertex="1">
          <mxGeometry x="500" y="280" width="140" height="30" as="geometry" />
        </mxCell>
        <mxCell id="F7Ml6rWDMI4VTQbKt3wj-34" value="運用体制確立 / SOP改訂" style="shape=delay;whiteSpace=wrap;html=1;sketch=0;strokeWidth=2;gradientColor=none;fontFamily=Noto Sans JP;fontSource=https%3A%2F%2Ffonts.googleapis.com%2Fcss%3Ffamily%3DNoto%2Bsans%2BJP;strokeColor=#CCCCCC;fillColor=#E6E6E6;opacity=50;" parent="F7Ml6rWDMI4VTQbKt3wj-11" vertex="1">
          <mxGeometry x="360" y="160" width="260" height="30" as="geometry" />
        </mxCell>
        <mxCell id="F7Ml6rWDMI4VTQbKt3wj-37" value="トレーニング" style="shape=delay;whiteSpace=wrap;html=1;sketch=0;strokeWidth=2;gradientColor=none;fontFamily=Noto Sans JP;fontSource=https%3A%2F%2Ffonts.googleapis.com%2Fcss%3Ffamily%3DNoto%2Bsans%2BJP;strokeColor=#CCCCCC;fillColor=#E6E6E6;opacity=50;" parent="F7Ml6rWDMI4VTQbKt3wj-11" vertex="1">
          <mxGeometry x="500" y="240" width="140" height="30" as="geometry" />
        </mxCell>
        <mxCell id="F7Ml6rWDMI4VTQbKt3wj-38" value="" style="ellipse;whiteSpace=wrap;html=1;aspect=fixed;sketch=0;strokeColor=#CCCCCC;strokeWidth=2;gradientColor=none;fontFamily=Noto Sans JP;fontSource=https%3A%2F%2Ffonts.googleapis.com%2Fcss%3Ffamily%3DNoto%2Bsans%2BJP;fontColor=#666666;fillColor=#808080;" parent="F7Ml6rWDMI4VTQbKt3wj-11" vertex="1">
          <mxGeometry x="200" y="330" width="20" height="20" as="geometry" />
        </mxCell>
      </root>
    </mxGraphModel>
  </diagram>
  <diagram id="yzcnV8rJP9rFtY0jjo2Y" name="Page-2">
    <mxGraphModel dx="1138" dy="720" grid="1" gridSize="10" guides="1" tooltips="1" connect="1" arrows="1" fold="1" page="1" pageScale="1" pageWidth="827" pageHeight="1169" math="0" shadow="0">
      <root>
        <mxCell id="JJeDSzfx8Dwy_tXf74xQ-0" />
        <mxCell id="JJeDSzfx8Dwy_tXf74xQ-1" style="" parent="JJeDSzfx8Dwy_tXf74xQ-0" />
        <mxCell id="lNKsqOhkiwGDZzSbxLfE-0" value="" style="shape=table;html=1;whiteSpace=wrap;startSize=0;container=1;collapsible=0;childLayout=tableLayout;fillColor=none;fontFamily=Montserrat;fontSource=https%3A%2F%2Ffonts.googleapis.com%2Fcss%3Ffamily%3DMontserrat;fontSize=15;strokeColor=#788AA3;fontColor=#46495D;shadow=0;" parent="JJeDSzfx8Dwy_tXf74xQ-1" vertex="1">
          <mxGeometry x="210" y="190" width="756" height="561" as="geometry" />
        </mxCell>
        <mxCell id="lNKsqOhkiwGDZzSbxLfE-1" value="" style="shape=partialRectangle;html=1;whiteSpace=wrap;collapsible=0;dropTarget=0;pointerEvents=0;fillColor=none;top=0;left=0;bottom=0;right=0;points=[[0,0.5],[1,0.5]];portConstraint=eastwest;strokeColor=#788AA3;fontColor=#46495D;" parent="lNKsqOhkiwGDZzSbxLfE-0" vertex="1">
          <mxGeometry width="756" height="50" as="geometry" />
        </mxCell>
        <mxCell id="lNKsqOhkiwGDZzSbxLfE-3" value="テスト実施者" style="shape=partialRectangle;html=1;whiteSpace=wrap;connectable=0;top=0;left=0;bottom=0;right=0;overflow=hidden;fontFamily=Montserrat;fontSource=https%3A%2F%2Ffonts.googleapis.com%2Fcss%3Ffamily%3DMontserrat;strokeColor=#788AA3;fontColor=#46495D;fontSize=14;fillColor=#D4E1F5;opacity=60;" parent="lNKsqOhkiwGDZzSbxLfE-1" vertex="1">
          <mxGeometry width="280" height="50" as="geometry" />
        </mxCell>
        <mxCell id="lNKsqOhkiwGDZzSbxLfE-4" value="QA / PJ / IT" style="shape=partialRectangle;html=1;whiteSpace=wrap;connectable=0;top=0;left=0;bottom=0;right=0;overflow=hidden;fontFamily=Montserrat;fontSource=https%3A%2F%2Ffonts.googleapis.com%2Fcss%3Ffamily%3DMontserrat;strokeColor=#788AA3;fontColor=#46495D;fontSize=14;fillColor=#D4E1F5;opacity=60;" parent="lNKsqOhkiwGDZzSbxLfE-1" vertex="1">
          <mxGeometry x="280" width="220" height="50" as="geometry" />
        </mxCell>
        <mxCell id="lNKsqOhkiwGDZzSbxLfE-5" value="ベンダー" style="shape=partialRectangle;html=1;whiteSpace=wrap;connectable=0;top=0;left=0;bottom=0;right=0;overflow=hidden;fontFamily=Montserrat;fontSource=https%3A%2F%2Ffonts.googleapis.com%2Fcss%3Ffamily%3DMontserrat;strokeColor=#788AA3;fontColor=#46495D;fontSize=14;fillColor=#D4E1F5;opacity=60;" parent="lNKsqOhkiwGDZzSbxLfE-1" vertex="1">
          <mxGeometry x="500" width="256" height="50" as="geometry" />
        </mxCell>
        <mxCell id="lNKsqOhkiwGDZzSbxLfE-8" value="" style="shape=partialRectangle;html=1;whiteSpace=wrap;collapsible=0;dropTarget=0;pointerEvents=0;fillColor=none;top=0;left=0;bottom=0;right=0;points=[[0,0.5],[1,0.5]];portConstraint=eastwest;strokeColor=#788AA3;fontColor=#46495D;" parent="lNKsqOhkiwGDZzSbxLfE-0" vertex="1">
          <mxGeometry y="50" width="756" height="511" as="geometry" />
        </mxCell>
        <mxCell id="lNKsqOhkiwGDZzSbxLfE-10" value="" style="shape=partialRectangle;html=1;whiteSpace=wrap;connectable=0;fillColor=none;top=0;left=0;bottom=0;right=0;overflow=hidden;fontFamily=Montserrat;fontSource=https%3A%2F%2Ffonts.googleapis.com%2Fcss%3Ffamily%3DMontserrat;strokeColor=#788AA3;fontColor=#46495D;" parent="lNKsqOhkiwGDZzSbxLfE-8" vertex="1">
          <mxGeometry width="280" height="511" as="geometry" />
        </mxCell>
        <mxCell id="lNKsqOhkiwGDZzSbxLfE-11" style="shape=partialRectangle;html=1;whiteSpace=wrap;connectable=0;fillColor=none;top=0;left=0;bottom=0;right=0;overflow=hidden;fontFamily=Montserrat;fontSource=https%3A%2F%2Ffonts.googleapis.com%2Fcss%3Ffamily%3DMontserrat;strokeColor=#788AA3;fontColor=#46495D;" parent="lNKsqOhkiwGDZzSbxLfE-8" vertex="1">
          <mxGeometry x="280" width="220" height="511" as="geometry" />
        </mxCell>
        <mxCell id="lNKsqOhkiwGDZzSbxLfE-12" value="" style="shape=partialRectangle;html=1;whiteSpace=wrap;connectable=0;fillColor=none;top=0;left=0;bottom=0;right=0;overflow=hidden;fontFamily=Montserrat;fontSource=https%3A%2F%2Ffonts.googleapis.com%2Fcss%3Ffamily%3DMontserrat;strokeColor=#788AA3;fontColor=#46495D;" parent="lNKsqOhkiwGDZzSbxLfE-8" vertex="1">
          <mxGeometry x="500" width="256" height="511" as="geometry" />
        </mxCell>
        <mxCell id="tmb3T-CWVm6sHfuo8dVS-0" style="edgeStyle=orthogonalEdgeStyle;rounded=0;orthogonalLoop=1;jettySize=auto;html=1;exitX=0.5;exitY=1;exitDx=0;exitDy=0;entryX=0.5;entryY=0;entryDx=0;entryDy=0;strokeColor=#999999;" parent="JJeDSzfx8Dwy_tXf74xQ-1" source="lNKsqOhkiwGDZzSbxLfE-30" target="lNKsqOhkiwGDZzSbxLfE-33" edge="1">
          <mxGeometry relative="1" as="geometry" />
        </mxCell>
        <mxCell id="lNKsqOhkiwGDZzSbxLfE-30" value="問題、課題点の発見" style="rounded=1;whiteSpace=wrap;html=1;shadow=0;strokeColor=#B3B3B3;fontColor=#1A1A1A;fillColor=none;" parent="JJeDSzfx8Dwy_tXf74xQ-1" vertex="1">
          <mxGeometry x="240" y="280" width="220" height="40" as="geometry" />
        </mxCell>
        <mxCell id="tmb3T-CWVm6sHfuo8dVS-2" style="edgeStyle=orthogonalEdgeStyle;rounded=0;orthogonalLoop=1;jettySize=auto;html=1;exitX=0.5;exitY=1;exitDx=0;exitDy=0;entryX=0.5;entryY=0;entryDx=0;entryDy=0;strokeColor=#999999;" parent="JJeDSzfx8Dwy_tXf74xQ-1" source="lNKsqOhkiwGDZzSbxLfE-33" target="tmb3T-CWVm6sHfuo8dVS-1" edge="1">
          <mxGeometry relative="1" as="geometry" />
        </mxCell>
        <mxCell id="lNKsqOhkiwGDZzSbxLfE-33" value="UAT_管理シートへ記入" style="rounded=1;whiteSpace=wrap;html=1;shadow=0;strokeColor=#B3B3B3;fontColor=#1A1A1A;fillColor=none;" parent="JJeDSzfx8Dwy_tXf74xQ-1" vertex="1">
          <mxGeometry x="240" y="350" width="220" height="40" as="geometry" />
        </mxCell>
        <mxCell id="tmb3T-CWVm6sHfuo8dVS-4" style="edgeStyle=orthogonalEdgeStyle;rounded=0;orthogonalLoop=1;jettySize=auto;html=1;exitX=0.5;exitY=1;exitDx=0;exitDy=0;entryX=0.5;entryY=0;entryDx=0;entryDy=0;strokeColor=#999999;" parent="JJeDSzfx8Dwy_tXf74xQ-1" source="tmb3T-CWVm6sHfuo8dVS-1" target="tmb3T-CWVm6sHfuo8dVS-3" edge="1">
          <mxGeometry relative="1" as="geometry" />
        </mxCell>
        <mxCell id="tmb3T-CWVm6sHfuo8dVS-1" value="&lt;div&gt;質問：VDRにメールor電話&lt;br&gt;&lt;/div&gt;&lt;div&gt;問題/要望：Teams UATチャネルへ投稿&lt;/div&gt;" style="rounded=1;whiteSpace=wrap;html=1;shadow=0;strokeColor=#B3B3B3;fontColor=#1A1A1A;fillColor=none;align=left;spacingLeft=3;" parent="JJeDSzfx8Dwy_tXf74xQ-1" vertex="1">
          <mxGeometry x="240" y="422" width="220" height="58" as="geometry" />
        </mxCell>
        <mxCell id="tmb3T-CWVm6sHfuo8dVS-6" style="edgeStyle=orthogonalEdgeStyle;rounded=0;orthogonalLoop=1;jettySize=auto;html=1;exitX=0.5;exitY=1;exitDx=0;exitDy=0;strokeColor=#999999;" parent="JJeDSzfx8Dwy_tXf74xQ-1" source="tmb3T-CWVm6sHfuo8dVS-3" target="tmb3T-CWVm6sHfuo8dVS-5" edge="1">
          <mxGeometry relative="1" as="geometry" />
        </mxCell>
        <mxCell id="tmb3T-CWVm6sHfuo8dVS-3" value="1次確認、緊急度確認" style="rounded=1;whiteSpace=wrap;html=1;shadow=0;strokeColor=#B3B3B3;fontColor=#1A1A1A;fillColor=none;" parent="JJeDSzfx8Dwy_tXf74xQ-1" vertex="1">
          <mxGeometry x="510" y="520" width="170" height="40" as="geometry" />
        </mxCell>
        <mxCell id="tmb3T-CWVm6sHfuo8dVS-8" style="edgeStyle=orthogonalEdgeStyle;rounded=0;orthogonalLoop=1;jettySize=auto;html=1;exitX=1;exitY=0.5;exitDx=0;exitDy=0;entryX=0;entryY=0.5;entryDx=0;entryDy=0;strokeColor=#999999;" parent="JJeDSzfx8Dwy_tXf74xQ-1" source="tmb3T-CWVm6sHfuo8dVS-5" target="tmb3T-CWVm6sHfuo8dVS-7" edge="1">
          <mxGeometry relative="1" as="geometry" />
        </mxCell>
        <mxCell id="tmb3T-CWVm6sHfuo8dVS-12" style="edgeStyle=orthogonalEdgeStyle;rounded=0;orthogonalLoop=1;jettySize=auto;html=1;exitX=0.5;exitY=1;exitDx=0;exitDy=0;entryX=0.5;entryY=0;entryDx=0;entryDy=0;strokeColor=#999999;" parent="JJeDSzfx8Dwy_tXf74xQ-1" source="tmb3T-CWVm6sHfuo8dVS-5" target="tmb3T-CWVm6sHfuo8dVS-11" edge="1">
          <mxGeometry relative="1" as="geometry" />
        </mxCell>
        <mxCell id="tmb3T-CWVm6sHfuo8dVS-5" value="緊急？" style="rhombus;whiteSpace=wrap;html=1;strokeColor=#B3B3B3;" parent="JJeDSzfx8Dwy_tXf74xQ-1" vertex="1">
          <mxGeometry x="513" y="585" width="170" height="60" as="geometry" />
        </mxCell>
        <mxCell id="tmb3T-CWVm6sHfuo8dVS-7" value="確認" style="rounded=1;whiteSpace=wrap;html=1;shadow=0;strokeColor=#B3B3B3;fontColor=#1A1A1A;fillColor=none;" parent="JJeDSzfx8Dwy_tXf74xQ-1" vertex="1">
          <mxGeometry x="750" y="595" width="170" height="40" as="geometry" />
        </mxCell>
        <mxCell id="tmb3T-CWVm6sHfuo8dVS-9" value="Yes" style="text;html=1;align=center;verticalAlign=middle;resizable=0;points=[];autosize=1;strokeColor=none;" parent="JJeDSzfx8Dwy_tXf74xQ-1" vertex="1">
          <mxGeometry x="670" y="595" width="40" height="20" as="geometry" />
        </mxCell>
        <mxCell id="tmb3T-CWVm6sHfuo8dVS-11" value="進捗会議にて確認" style="rounded=1;whiteSpace=wrap;html=1;shadow=0;strokeColor=#B3B3B3;fontColor=#1A1A1A;fillColor=none;" parent="JJeDSzfx8Dwy_tXf74xQ-1" vertex="1">
          <mxGeometry x="513" y="680" width="170" height="40" as="geometry" />
        </mxCell>
        <mxCell id="iIOmdttVaqr3QkyHwpZp-0" value="No" style="text;html=1;align=center;verticalAlign=middle;resizable=0;points=[];autosize=1;" parent="JJeDSzfx8Dwy_tXf74xQ-1" vertex="1">
          <mxGeometry x="560" y="645" width="30" height="20" as="geometry" />
        </mxCell>
      </root>
    </mxGraphModel>
  </diagram>
  <diagram id="MXUDZh8WraaaDbio5h_8" name="Page-4">
    <mxGraphModel dx="2792" dy="720" grid="1" gridSize="10" guides="1" tooltips="1" connect="1" arrows="1" fold="1" page="1" pageScale="1" pageWidth="827" pageHeight="1169" math="0" shadow="0">
      <root>
        <mxCell id="6LkkB9nScM2RVUKpbSmf-0" />
        <mxCell id="6LkkB9nScM2RVUKpbSmf-1" parent="6LkkB9nScM2RVUKpbSmf-0" />
        <mxCell id="BRnERaBzU5A2dsg0r-gA-2" value="" style="verticalLabelPosition=bottom;verticalAlign=top;html=1;shape=mxgraph.basic.polygon;polyCoords=[[0.25,0],[0.75,0],[1,0.25],[1,0.75],[0.75,1],[0.25,1],[0,0.75],[0,0.25]];polyline=0;sketch=1;fillColor=#E1D5E7;strokeColor=#999999;" parent="6LkkB9nScM2RVUKpbSmf-1" vertex="1">
          <mxGeometry x="-755" y="1100" width="455" height="320" as="geometry" />
        </mxCell>
        <mxCell id="-eaMx4taLnJMhwEeeR62-16" value="&lt;div style=&quot;font-size: 18px&quot;&gt;7/26 - 8/5&lt;br&gt;&lt;/div&gt;" style="shape=mxgraph.infographic.ribbonSimple;notch1=0;notch2=10;notch=0;html=1;fillColor=#5D7F99;shadow=0;fontSize=18;align=center;spacingLeft=10;fontStyle=1;opacity=20;fontColor=#666666;strokeColor=#666666;" parent="6LkkB9nScM2RVUKpbSmf-1" vertex="1">
          <mxGeometry x="-360" y="760" width="990" height="40" as="geometry" />
        </mxCell>
        <mxCell id="7G_AI8LGNQn5jvMoT9R6-4" value="7/30 - 8/5" style="shape=mxgraph.infographic.ribbonSimple;notch1=0;notch2=10;notch=0;html=1;shadow=0;fontSize=17;align=center;spacingLeft=10;fontStyle=1;fillColor=#5D7F99;opacity=20;fontColor=#666666;strokeColor=#666666;" parent="6LkkB9nScM2RVUKpbSmf-1" vertex="1">
          <mxGeometry x="-730" y="940" width="1360" height="100" as="geometry" />
        </mxCell>
        <mxCell id="7G_AI8LGNQn5jvMoT9R6-5" value="&lt;div&gt;在庫・実績・&lt;/div&gt;&lt;div&gt;BO確認&lt;/div&gt;" style="shape=delay;whiteSpace=wrap;html=1;fontSize=13;strokeColor=none;fontColor=#FFFFFF;fontStyle=1;fillColor=#F08E81;" parent="6LkkB9nScM2RVUKpbSmf-1" vertex="1">
          <mxGeometry x="-730" y="360" width="110" height="40" as="geometry" />
        </mxCell>
        <mxCell id="7G_AI8LGNQn5jvMoT9R6-6" value="入庫" style="shape=delay;whiteSpace=wrap;html=1;fontSize=13;strokeColor=none;fontColor=#FFFFFF;fontStyle=1;fillColor=#64BBE2;" parent="6LkkB9nScM2RVUKpbSmf-1" vertex="1">
          <mxGeometry x="-437.5" y="410" width="60" height="40" as="geometry" />
        </mxCell>
        <mxCell id="7G_AI8LGNQn5jvMoT9R6-7" value="PO発行" style="shape=delay;whiteSpace=wrap;html=1;fontSize=13;strokeColor=none;fontColor=#FFFFFF;fontStyle=1;fillColor=#F08E81;" parent="6LkkB9nScM2RVUKpbSmf-1" vertex="1">
          <mxGeometry x="-610" y="360" width="80" height="40" as="geometry" />
        </mxCell>
        <mxCell id="-eaMx4taLnJMhwEeeR62-22" style="edgeStyle=orthogonalEdgeStyle;rounded=0;sketch=1;jumpSize=6;orthogonalLoop=1;jettySize=auto;html=1;exitX=0.5;exitY=0;exitDx=0;exitDy=0;entryX=0.004;entryY=0.504;entryDx=0;entryDy=0;entryPerimeter=0;fontFamily=Helvetica;fontSize=14;fontColor=#666666;startSize=6;endSize=15;strokeColor=#CCCCCC;strokeWidth=3;" parent="6LkkB9nScM2RVUKpbSmf-1" source="7G_AI8LGNQn5jvMoT9R6-8" target="-eaMx4taLnJMhwEeeR62-21" edge="1">
          <mxGeometry relative="1" as="geometry" />
        </mxCell>
        <mxCell id="7G_AI8LGNQn5jvMoT9R6-8" value="マスター登録" style="shape=delay;whiteSpace=wrap;html=1;fontSize=13;strokeColor=none;fontColor=#FFFFFF;fontStyle=1;fillColor=#F08E81;" parent="6LkkB9nScM2RVUKpbSmf-1" vertex="1">
          <mxGeometry x="-730" y="1280" width="110" height="40" as="geometry" />
        </mxCell>
        <mxCell id="7G_AI8LGNQn5jvMoT9R6-9" value="納期把握" style="shape=delay;whiteSpace=wrap;html=1;fontSize=13;strokeColor=none;fontColor=#FFFFFF;fontStyle=1;fillColor=#F08E81;" parent="6LkkB9nScM2RVUKpbSmf-1" vertex="1">
          <mxGeometry x="-520" y="360" width="72.5" height="40" as="geometry" />
        </mxCell>
        <mxCell id="7G_AI8LGNQn5jvMoT9R6-10" value="入庫" style="shape=delay;whiteSpace=wrap;html=1;fontSize=13;strokeColor=none;fontColor=#FFFFFF;fontStyle=1;fillColor=#F08E81;" parent="6LkkB9nScM2RVUKpbSmf-1" vertex="1">
          <mxGeometry x="-437.5" y="360" width="60" height="40" as="geometry" />
        </mxCell>
        <mxCell id="7G_AI8LGNQn5jvMoT9R6-12" value="出荷指示" style="shape=delay;whiteSpace=wrap;html=1;fontSize=13;strokeColor=none;fontColor=#FFFFFF;fontStyle=1;fillColor=#64BBE2;" parent="6LkkB9nScM2RVUKpbSmf-1" vertex="1">
          <mxGeometry x="-260" y="410" width="90" height="40" as="geometry" />
        </mxCell>
        <mxCell id="7G_AI8LGNQn5jvMoT9R6-14" value="ピッキング" style="shape=delay;whiteSpace=wrap;html=1;fontSize=13;strokeColor=none;fontColor=#FFFFFF;fontStyle=1;fillColor=#64BBE2;" parent="6LkkB9nScM2RVUKpbSmf-1" vertex="1">
          <mxGeometry x="-160" y="410" width="90" height="40" as="geometry" />
        </mxCell>
        <mxCell id="7G_AI8LGNQn5jvMoT9R6-15" value="&lt;div&gt;受注精査&lt;/div&gt;&lt;div&gt;WMS入力&lt;/div&gt;" style="shape=delay;whiteSpace=wrap;html=1;fontSize=13;strokeColor=none;fontColor=#FFFFFF;fontStyle=1;fillColor=#64BBE2;" parent="6LkkB9nScM2RVUKpbSmf-1" vertex="1">
          <mxGeometry x="-360" y="410" width="90" height="40" as="geometry" />
        </mxCell>
        <mxCell id="7G_AI8LGNQn5jvMoT9R6-20" value="7/26,27" style="shape=mxgraph.infographic.ribbonSimple;notch1=0;notch2=10;notch=0;html=1;fillColor=#5D7F99;shadow=0;fontSize=17;align=center;spacingLeft=10;fontStyle=1;opacity=20;fontColor=#666666;strokeColor=#666666;" parent="6LkkB9nScM2RVUKpbSmf-1" vertex="1">
          <mxGeometry x="-730" y="520" width="280" height="400" as="geometry" />
        </mxCell>
        <mxCell id="7G_AI8LGNQn5jvMoT9R6-21" value="Dual" style="rounded=1;whiteSpace=wrap;html=1;fontFamily=Helvetica;fontSize=18;fillColor=none;strokeColor=#5D7F99;fontColor=#666666;" parent="6LkkB9nScM2RVUKpbSmf-1" vertex="1">
          <mxGeometry x="-880" y="520" width="120" height="40" as="geometry" />
        </mxCell>
        <mxCell id="7G_AI8LGNQn5jvMoT9R6-22" value="Splate" style="rounded=1;whiteSpace=wrap;html=1;fontFamily=Helvetica;fontSize=18;fillColor=none;strokeColor=#5D7F99;fontColor=#666666;" parent="6LkkB9nScM2RVUKpbSmf-1" vertex="1">
          <mxGeometry x="-880" y="580" width="120" height="40" as="geometry" />
        </mxCell>
        <mxCell id="7G_AI8LGNQn5jvMoT9R6-23" value="Microport" style="rounded=1;whiteSpace=wrap;html=1;fontFamily=Helvetica;fontSize=18;fillColor=none;strokeColor=#5D7F99;fontColor=#666666;" parent="6LkkB9nScM2RVUKpbSmf-1" vertex="1">
          <mxGeometry x="-880" y="640" width="120" height="40" as="geometry" />
        </mxCell>
        <mxCell id="7G_AI8LGNQn5jvMoT9R6-24" value="OLS2" style="rounded=1;whiteSpace=wrap;html=1;fontFamily=Helvetica;fontSize=18;fillColor=none;strokeColor=#5D7F99;fontColor=#666666;" parent="6LkkB9nScM2RVUKpbSmf-1" vertex="1">
          <mxGeometry x="-880" y="700" width="120" height="40" as="geometry" />
        </mxCell>
        <mxCell id="7G_AI8LGNQn5jvMoT9R6-26" value="LARCH" style="rounded=1;whiteSpace=wrap;html=1;fontFamily=Helvetica;fontSize=18;fillColor=none;strokeColor=#5D7F99;fontColor=#666666;" parent="6LkkB9nScM2RVUKpbSmf-1" vertex="1">
          <mxGeometry x="-880" y="760" width="120" height="40" as="geometry" />
        </mxCell>
        <mxCell id="7G_AI8LGNQn5jvMoT9R6-27" value="BM3D" style="rounded=1;whiteSpace=wrap;html=1;fontFamily=Helvetica;fontSize=18;fillColor=none;strokeColor=#5D7F99;fontColor=#666666;" parent="6LkkB9nScM2RVUKpbSmf-1" vertex="1">
          <mxGeometry x="-880" y="940" width="120" height="40" as="geometry" />
        </mxCell>
        <mxCell id="7G_AI8LGNQn5jvMoT9R6-28" value="RDN" style="rounded=1;whiteSpace=wrap;html=1;fontFamily=Helvetica;fontSize=18;fillColor=none;strokeColor=#5D7F99;fontColor=#666666;" parent="6LkkB9nScM2RVUKpbSmf-1" vertex="1">
          <mxGeometry x="-880" y="1000" width="120" height="40" as="geometry" />
        </mxCell>
        <mxCell id="7G_AI8LGNQn5jvMoT9R6-30" value="&lt;div&gt;梱包&lt;/div&gt;&lt;div&gt;送状発行&lt;br&gt;&lt;/div&gt;" style="shape=delay;whiteSpace=wrap;html=1;fontSize=13;strokeColor=none;fontColor=#FFFFFF;fontStyle=1;fillColor=#64BBE2;" parent="6LkkB9nScM2RVUKpbSmf-1" vertex="1">
          <mxGeometry x="-60" y="410" width="90" height="40" as="geometry" />
        </mxCell>
        <mxCell id="7G_AI8LGNQn5jvMoT9R6-31" value="発送" style="shape=delay;whiteSpace=wrap;html=1;fontSize=13;strokeColor=none;fontColor=#FFFFFF;fontStyle=1;fillColor=#529ABA;" parent="6LkkB9nScM2RVUKpbSmf-1" vertex="1">
          <mxGeometry x="-60" y="460" width="90" height="40" as="geometry" />
        </mxCell>
        <mxCell id="7G_AI8LGNQn5jvMoT9R6-32" value="商品使用～返却" style="shape=delay;whiteSpace=wrap;html=1;fontSize=13;strokeColor=none;fontColor=#FFFFFF;fontStyle=1;fillColor=#529ABA;" parent="6LkkB9nScM2RVUKpbSmf-1" vertex="1">
          <mxGeometry x="40" y="460" width="110" height="40" as="geometry" />
        </mxCell>
        <mxCell id="7G_AI8LGNQn5jvMoT9R6-33" value="&lt;div&gt;注文書受領&lt;/div&gt;（補充）" style="shape=delay;whiteSpace=wrap;html=1;fontSize=13;strokeColor=none;fontColor=#FFFFFF;fontStyle=1;fillColor=#64BBE2;" parent="6LkkB9nScM2RVUKpbSmf-1" vertex="1">
          <mxGeometry x="160" y="410" width="100" height="40" as="geometry" />
        </mxCell>
        <mxCell id="7G_AI8LGNQn5jvMoT9R6-34" value="&lt;div&gt;入荷検品&lt;/div&gt;" style="shape=delay;whiteSpace=wrap;html=1;fontSize=13;strokeColor=none;fontColor=#FFFFFF;fontStyle=1;fillColor=#529ABA;" parent="6LkkB9nScM2RVUKpbSmf-1" vertex="1">
          <mxGeometry x="-437.5" y="460" width="75" height="40" as="geometry" />
        </mxCell>
        <mxCell id="7G_AI8LGNQn5jvMoT9R6-38" value="&lt;div&gt;返却品受領&lt;/div&gt;&lt;div&gt;検品&lt;/div&gt;" style="shape=delay;whiteSpace=wrap;html=1;fontSize=13;strokeColor=none;fontColor=#FFFFFF;fontStyle=1;fillColor=#64BBE2;" parent="6LkkB9nScM2RVUKpbSmf-1" vertex="1">
          <mxGeometry x="160" y="460" width="100" height="40" as="geometry" />
        </mxCell>
        <mxCell id="QzVihoySz1F5E6NGSEDe-0" value="&lt;div&gt;内容精査&lt;/div&gt;WMS入力" style="shape=delay;whiteSpace=wrap;html=1;fontSize=13;strokeColor=none;fontColor=#FFFFFF;fontStyle=1;fillColor=#64BBE2;" parent="6LkkB9nScM2RVUKpbSmf-1" vertex="1">
          <mxGeometry x="270" y="410" width="90" height="40" as="geometry" />
        </mxCell>
        <mxCell id="QzVihoySz1F5E6NGSEDe-1" value="出荷指示" style="shape=delay;whiteSpace=wrap;html=1;fontSize=13;strokeColor=none;fontColor=#FFFFFF;fontStyle=1;fillColor=#64BBE2;" parent="6LkkB9nScM2RVUKpbSmf-1" vertex="1">
          <mxGeometry x="370" y="410" width="80" height="40" as="geometry" />
        </mxCell>
        <mxCell id="QzVihoySz1F5E6NGSEDe-2" value="売上処理" style="shape=delay;whiteSpace=wrap;html=1;fontSize=13;strokeColor=none;fontColor=#FFFFFF;fontStyle=1;fillColor=#64BBE2;" parent="6LkkB9nScM2RVUKpbSmf-1" vertex="1">
          <mxGeometry x="460" y="410" width="80" height="40" as="geometry" />
        </mxCell>
        <mxCell id="QzVihoySz1F5E6NGSEDe-3" value="売掛管理" style="shape=delay;whiteSpace=wrap;html=1;fontSize=13;strokeColor=none;fontColor=#FFFFFF;fontStyle=1;fillColor=#F08E81;" parent="6LkkB9nScM2RVUKpbSmf-1" vertex="1">
          <mxGeometry x="460" y="360" width="80" height="40" as="geometry" />
        </mxCell>
        <mxCell id="QzVihoySz1F5E6NGSEDe-4" value="&lt;div&gt;納品書&lt;/div&gt;&lt;div&gt;発行発送&lt;br&gt;&lt;/div&gt;" style="shape=delay;whiteSpace=wrap;html=1;fontSize=13;strokeColor=none;fontColor=#FFFFFF;fontStyle=1;fillColor=#64BBE2;" parent="6LkkB9nScM2RVUKpbSmf-1" vertex="1">
          <mxGeometry x="550" y="410" width="80" height="40" as="geometry" />
        </mxCell>
        <mxCell id="QzVihoySz1F5E6NGSEDe-6" value="買掛管理" style="shape=delay;whiteSpace=wrap;html=1;fontSize=13;strokeColor=none;fontColor=#FFFFFF;fontStyle=1;fillColor=#F08E81;" parent="6LkkB9nScM2RVUKpbSmf-1" vertex="1">
          <mxGeometry x="-360" y="360" width="90" height="40" as="geometry" />
        </mxCell>
        <mxCell id="-eaMx4taLnJMhwEeeR62-0" value="請求書発行" style="shape=delay;whiteSpace=wrap;html=1;fontSize=13;strokeColor=none;fontColor=#FFFFFF;fontStyle=1;fillColor=#F08E81;" parent="6LkkB9nScM2RVUKpbSmf-1" vertex="1">
          <mxGeometry x="550" y="360" width="80" height="40" as="geometry" />
        </mxCell>
        <mxCell id="-eaMx4taLnJMhwEeeR62-2" value="&lt;div&gt;セット品&lt;/div&gt;修理" style="shape=delay;whiteSpace=wrap;html=1;fontSize=13;strokeColor=none;fontColor=#FFFFFF;fontStyle=1;fillColor=#64BBE2;" parent="6LkkB9nScM2RVUKpbSmf-1" vertex="1">
          <mxGeometry x="-580" y="1330" width="90" height="40" as="geometry" />
        </mxCell>
        <mxCell id="-eaMx4taLnJMhwEeeR62-3" value="移動処理" style="shape=delay;whiteSpace=wrap;html=1;fontSize=13;strokeColor=none;fontColor=#FFFFFF;fontStyle=1;fillColor=#64BBE2;" parent="6LkkB9nScM2RVUKpbSmf-1" vertex="1">
          <mxGeometry x="-580" y="1280" width="90" height="40" as="geometry" />
        </mxCell>
        <mxCell id="-eaMx4taLnJMhwEeeR62-4" value="検査・製造" style="shape=delay;whiteSpace=wrap;html=1;fontSize=13;strokeColor=none;fontColor=#FFFFFF;fontStyle=1;fillColor=#64BBE2;" parent="6LkkB9nScM2RVUKpbSmf-1" vertex="1">
          <mxGeometry x="-360" y="460" width="90" height="40" as="geometry" />
        </mxCell>
        <mxCell id="-eaMx4taLnJMhwEeeR62-7" value="SAP" style="rounded=0;whiteSpace=wrap;html=1;fontFamily=Helvetica;fontSize=18;fontColor=#666666;strokeColor=#F08E81;align=center;opacity=20;fillColor=none;strokeWidth=4;" parent="6LkkB9nScM2RVUKpbSmf-1" vertex="1">
          <mxGeometry x="-880" y="360" width="120" height="40" as="geometry" />
        </mxCell>
        <mxCell id="-eaMx4taLnJMhwEeeR62-8" value="WMS" style="rounded=0;whiteSpace=wrap;html=1;fontFamily=Helvetica;fontSize=18;fontColor=#666666;align=center;opacity=20;fillColor=none;strokeWidth=4;strokeColor=#64BBE2;" parent="6LkkB9nScM2RVUKpbSmf-1" vertex="1">
          <mxGeometry x="-880" y="410" width="120" height="90" as="geometry" />
        </mxCell>
        <mxCell id="-eaMx4taLnJMhwEeeR62-11" value="" style="endArrow=classic;html=1;fontFamily=Helvetica;fontSize=18;fontColor=#666666;strokeWidth=3;startSize=6;jumpSize=6;endSize=15;sketch=1;strokeColor=#CCCCCC;" parent="6LkkB9nScM2RVUKpbSmf-1" edge="1">
          <mxGeometry width="50" height="50" relative="1" as="geometry">
            <mxPoint x="-880" y="320" as="sourcePoint" />
            <mxPoint x="660" y="310" as="targetPoint" />
          </mxGeometry>
        </mxCell>
        <mxCell id="-eaMx4taLnJMhwEeeR62-13" value="" style="group" parent="6LkkB9nScM2RVUKpbSmf-1" vertex="1" connectable="0">
          <mxGeometry x="-460" y="1280" width="90" height="90" as="geometry" />
        </mxCell>
        <mxCell id="-eaMx4taLnJMhwEeeR62-1" value="棚卸" style="shape=delay;whiteSpace=wrap;html=1;fontSize=13;strokeColor=none;fontColor=#FFFFFF;fontStyle=1;fillColor=#64BBE2;" parent="-eaMx4taLnJMhwEeeR62-13" vertex="1">
          <mxGeometry y="50" width="90" height="40" as="geometry" />
        </mxCell>
        <mxCell id="-eaMx4taLnJMhwEeeR62-12" value="在庫管理" style="shape=delay;whiteSpace=wrap;html=1;fontSize=13;strokeColor=none;fontColor=#FFFFFF;fontStyle=1;fillColor=#F08E81;" parent="-eaMx4taLnJMhwEeeR62-13" vertex="1">
          <mxGeometry width="90" height="40" as="geometry" />
        </mxCell>
        <mxCell id="-eaMx4taLnJMhwEeeR62-14" value="&lt;div style=&quot;font-size: 13px&quot;&gt;SAP:7/28&lt;/div&gt;&lt;div style=&quot;font-size: 13px&quot;&gt;WMS: 8/2&lt;br style=&quot;font-size: 13px&quot;&gt;&lt;/div&gt;" style="shape=mxgraph.infographic.ribbonSimple;notch1=0;notch2=10;notch=0;html=1;fillColor=#5D7F99;shadow=0;fontSize=13;align=left;spacingLeft=4;fontStyle=1;opacity=20;fontColor=#666666;strokeColor=#666666;" parent="6LkkB9nScM2RVUKpbSmf-1" vertex="1">
          <mxGeometry x="-440" y="520" width="70" height="400" as="geometry" />
        </mxCell>
        <mxCell id="-eaMx4taLnJMhwEeeR62-15" value="&lt;div style=&quot;font-size: 14px&quot;&gt;ラベル:&lt;br style=&quot;font-size: 14px&quot;&gt;&lt;/div&gt;&lt;div style=&quot;font-size: 14px&quot;&gt;8/2&lt;/div&gt;" style="shape=mxgraph.infographic.ribbonSimple;notch1=0;notch2=10;notch=0;html=1;fillColor=#5D7F99;shadow=0;fontSize=14;align=left;spacingLeft=10;fontStyle=1;opacity=20;fontColor=#666666;strokeColor=#666666;" parent="6LkkB9nScM2RVUKpbSmf-1" vertex="1">
          <mxGeometry x="-360" y="520" width="80" height="400" as="geometry" />
        </mxCell>
        <mxCell id="-eaMx4taLnJMhwEeeR62-17" value="SYNCHA" style="rounded=1;whiteSpace=wrap;html=1;fontFamily=Helvetica;fontSize=18;fillColor=none;strokeColor=#5D7F99;fontColor=#666666;" parent="6LkkB9nScM2RVUKpbSmf-1" vertex="1">
          <mxGeometry x="-880" y="820" width="120" height="40" as="geometry" />
        </mxCell>
        <mxCell id="-eaMx4taLnJMhwEeeR62-18" value="Maphix" style="rounded=1;whiteSpace=wrap;html=1;fontFamily=Helvetica;fontSize=18;fillColor=none;strokeColor=#5D7F99;fontColor=#666666;" parent="6LkkB9nScM2RVUKpbSmf-1" vertex="1">
          <mxGeometry x="-880" y="880" width="120" height="40" as="geometry" />
        </mxCell>
        <mxCell id="-eaMx4taLnJMhwEeeR62-20" value="8/10 - 8/11" style="shape=mxgraph.infographic.ribbonSimple;notch1=0;notch2=10;notch=0;html=1;fillColor=#5D7F99;shadow=0;fontSize=17;align=center;spacingLeft=10;fontStyle=1;opacity=20;fontColor=#666666;strokeColor=#666666;" parent="6LkkB9nScM2RVUKpbSmf-1" vertex="1">
          <mxGeometry x="-360" y="880" width="985" height="40" as="geometry" />
        </mxCell>
        <mxCell id="-eaMx4taLnJMhwEeeR62-21" value="&lt;div&gt;品目マスタ&lt;/div&gt;&lt;div&gt;購買先情報マスタ&lt;br&gt;&lt;/div&gt;&lt;div&gt;購買価格マスタ&lt;/div&gt;&lt;div&gt;-&amp;gt; ロジ購買課&lt;br&gt;&lt;/div&gt;&lt;div&gt;&lt;br&gt;&lt;/div&gt;&lt;div&gt;価格マスタ（販売）&lt;/div&gt;&lt;div&gt;-&amp;gt; &lt;br&gt;&lt;/div&gt;" style="text;html=1;align=left;verticalAlign=middle;resizable=0;points=[];autosize=1;strokeColor=none;fontSize=14;fontFamily=Helvetica;fontColor=#666666;" parent="6LkkB9nScM2RVUKpbSmf-1" vertex="1">
          <mxGeometry x="-640" y="1110" width="140" height="120" as="geometry" />
        </mxCell>
        <mxCell id="GqHxbaZjuCaMGIjJ4qQG-0" value="7/27 -8/6" style="shape=mxgraph.infographic.ribbonSimple;notch1=0;notch2=10;notch=0;html=1;fillColor=#5D7F99;shadow=0;fontSize=18;align=center;spacingLeft=10;fontStyle=1;opacity=20;fontColor=#666666;strokeColor=#666666;" parent="6LkkB9nScM2RVUKpbSmf-1" vertex="1">
          <mxGeometry x="-360" y="700" width="990" height="40" as="geometry" />
        </mxCell>
        <mxCell id="GqHxbaZjuCaMGIjJ4qQG-1" value="7/27 -8/5" style="shape=mxgraph.infographic.ribbonSimple;notch1=0;notch2=10;notch=0;html=1;fillColor=#5D7F99;shadow=0;fontSize=18;align=center;spacingLeft=10;fontStyle=1;opacity=20;fontColor=#666666;strokeColor=#666666;" parent="6LkkB9nScM2RVUKpbSmf-1" vertex="1">
          <mxGeometry x="-360" y="520" width="990" height="40" as="geometry" />
        </mxCell>
        <mxCell id="GqHxbaZjuCaMGIjJ4qQG-2" value="8/2 - 8/5" style="shape=mxgraph.infographic.ribbonSimple;notch1=0;notch2=10;notch=0;html=1;fillColor=#5D7F99;shadow=0;fontSize=18;align=center;spacingLeft=10;fontStyle=1;opacity=20;fontColor=#666666;strokeColor=#666666;" parent="6LkkB9nScM2RVUKpbSmf-1" vertex="1">
          <mxGeometry x="-362.5" y="580" width="990" height="40" as="geometry" />
        </mxCell>
        <mxCell id="GqHxbaZjuCaMGIjJ4qQG-3" value="7/26 - 8/5" style="shape=mxgraph.infographic.ribbonSimple;notch1=0;notch2=10;notch=0;html=1;fillColor=#5D7F99;shadow=0;fontSize=18;align=center;spacingLeft=10;fontStyle=1;opacity=20;fontColor=#666666;strokeColor=#666666;" parent="6LkkB9nScM2RVUKpbSmf-1" vertex="1">
          <mxGeometry x="-360" y="640" width="990" height="40" as="geometry" />
        </mxCell>
        <mxCell id="GqHxbaZjuCaMGIjJ4qQG-4" value="7/26 - 8/5" style="shape=mxgraph.infographic.ribbonSimple;notch1=0;notch2=10;notch=0;html=1;fillColor=#5D7F99;shadow=0;fontSize=18;align=center;spacingLeft=10;fontStyle=1;opacity=20;fontColor=#666666;strokeColor=#666666;" parent="6LkkB9nScM2RVUKpbSmf-1" vertex="1">
          <mxGeometry x="-360" y="820" width="990" height="40" as="geometry" />
        </mxCell>
        <mxCell id="BRnERaBzU5A2dsg0r-gA-3" value="上記から漏れてるやつ" style="text;html=1;align=center;verticalAlign=middle;resizable=0;points=[];autosize=1;strokeColor=none;fontFamily=Noto Sans JP;fontSource=https%3A%2F%2Ffonts.googleapis.com%2Fcss%3Ffamily%3DMontserrat;fontSize=19;" parent="6LkkB9nScM2RVUKpbSmf-1" vertex="1">
          <mxGeometry x="-840" y="1370" width="200" height="30" as="geometry" />
        </mxCell>
        <mxCell id="BRnERaBzU5A2dsg0r-gA-4" value="UAT物流系スケジュール" style="text;html=1;align=center;verticalAlign=middle;resizable=0;points=[];autosize=1;strokeColor=none;fontSize=26;fontFamily=Noto Sans JP;fontColor=#808080;" parent="6LkkB9nScM2RVUKpbSmf-1" vertex="1">
          <mxGeometry x="-880" y="255" width="300" height="40" as="geometry" />
        </mxCell>
      </root>
    </mxGraphModel>
  </diagram>
</mxfile>
